<?xml version="1.0" encoding="utf-8"?>
<svg xmlns="http://www.w3.org/2000/svg" fill="none" viewBox="0 0 1024 512"><path fill="#fff" d="M0 0h1024v512H0z"/><path fill="url(#paint0_linear)" d="M669.898 192.159c32.217 10.725 42.537 31.375 38.139 48.994-4.487 17.62-23.691 32.211-46.215 44.712-22.614 12.501-48.639 22.982-85.432 33.011-36.882 10.028-84.534 19.604-132.724 17.933-48.1-1.706-96.738-14.66-114.327-31.966-17.678-17.272-4.307-38.862 12.833-57.317 17.23-18.421 38.408-33.742 70.176-44.502 31.857-10.76 74.303-16.993 122.673-19.71 48.369-2.716 102.571-1.88 134.877 8.845z"/><path fill="#000" d="M317.296 307.768c.384.811.576 1.6.576 2.368 0 1.408-.576 2.603-1.728 3.584-1.109.981-2.389 1.472-3.84 1.472a4.934 4.934 0 01-2.688-.768c-.811-.512-1.451-1.28-1.92-2.304l-2.88-6.464H284.08l-2.944 6.464c-.469 1.024-1.131 1.792-1.984 2.304a4.934 4.934 0 01-2.688.768c-1.451 0-2.773-.491-3.968-1.472-1.152-.981-1.728-2.176-1.728-3.584 0-.768.192-1.557.576-2.368l16.896-34.688c.555-1.152 1.365-2.027 2.432-2.624a7.17 7.17 0 013.648-.96c1.28 0 2.475.32 3.584.96a5.724 5.724 0 012.496 2.624l16.896 34.688zm-16.448-10.944l-6.4-14.272-6.4 14.272h12.8zm38.208 18.752c-3.413 0-6.592-.363-9.536-1.088-2.901-.768-5.291-1.813-7.168-3.136-.725-.555-1.259-1.131-1.6-1.728-.299-.597-.448-1.365-.448-2.304 0-1.28.384-2.389 1.152-3.328.768-.939 1.664-1.408 2.688-1.408.555 0 1.088.085 1.6.256.512.171 1.152.491 1.92.96 1.749.981 3.477 1.685 5.184 2.112 1.749.427 3.712.64 5.888.64 2.517 0 4.416-.363 5.696-1.088 1.323-.768 1.984-1.877 1.984-3.328 0-.981-.619-1.813-1.856-2.496-1.195-.725-3.499-1.429-6.912-2.112-4.224-.896-7.531-1.963-9.92-3.2-2.389-1.237-4.075-2.688-5.056-4.352-.939-1.707-1.408-3.755-1.408-6.144 0-2.731.811-5.205 2.432-7.424 1.621-2.219 3.84-3.947 6.656-5.184 2.859-1.28 6.059-1.92 9.6-1.92 3.115 0 5.888.341 8.32 1.024a20.89 20.89 0 016.656 3.2c.768.555 1.301 1.152 1.6 1.792.341.597.512 1.344.512 2.24 0 1.28-.384 2.389-1.152 3.328-.725.939-1.6 1.408-2.624 1.408a5.82 5.82 0 01-1.536-.192c-.469-.171-1.131-.512-1.984-1.024-.213-.128-.832-.448-1.856-.96-.981-.555-2.155-.981-3.52-1.28-1.323-.341-2.773-.512-4.352-.512-2.176 0-3.925.427-5.248 1.28-1.323.811-1.984 1.899-1.984 3.264 0 .811.235 1.472.704 1.984s1.344 1.024 2.624 1.536c1.28.469 3.179.96 5.696 1.472 4.096.896 7.317 1.984 9.664 3.264 2.347 1.237 4.011 2.688 4.992 4.352.981 1.664 1.472 3.627 1.472 5.888 0 2.816-.789 5.312-2.368 7.488-1.579 2.133-3.797 3.797-6.656 4.992-2.816 1.152-6.101 1.728-9.856 1.728zm52.197-44.16c1.109-1.28 2.411-1.92 3.904-1.92 1.408 0 2.667.555 3.776 1.664 1.152 1.067 1.728 2.304 1.728 3.712 0 1.237-.469 2.411-1.408 3.52l-13.44 15.552v15.616c0 1.877-.555 3.328-1.664 4.352-1.067.981-2.453 1.472-4.16 1.472-1.749 0-3.179-.491-4.288-1.472-1.109-1.024-1.664-2.475-1.664-4.352v-15.616l-13.312-15.552c-.981-1.109-1.472-2.304-1.472-3.584 0-1.408.555-2.645 1.664-3.712 1.109-1.067 2.368-1.6 3.776-1.6 1.493 0 2.795.64 3.904 1.92l11.328 13.44 11.328-13.44zm48.281-1.856c1.621 0 2.944.533 3.968 1.6 1.067 1.067 1.6 2.453 1.6 4.16v34.24c0 1.749-.512 3.157-1.536 4.224-1.024 1.067-2.347 1.6-3.968 1.6-1.92 0-3.371-.64-4.352-1.92l-19.456-24.256v20.352c0 1.749-.491 3.157-1.472 4.224-.981 1.067-2.304 1.6-3.968 1.6-1.621 0-2.944-.533-3.968-1.6-1.024-1.067-1.536-2.475-1.536-4.224v-34.24c0-1.707.512-3.093 1.536-4.16 1.024-1.067 2.347-1.6 3.968-1.6 1.835 0 3.264.64 4.288 1.92l19.456 24.192V275.32c0-1.749.491-3.136 1.472-4.16 1.024-1.067 2.347-1.6 3.968-1.6zm35.126 46.016c-4.523 0-8.491-.939-11.904-2.816-3.371-1.877-5.995-4.565-7.872-8.064-1.835-3.499-2.752-7.595-2.752-12.288 0-4.651.917-8.725 2.752-12.224 1.877-3.499 4.501-6.187 7.872-8.064 3.413-1.877 7.381-2.816 11.904-2.816 5.418 0 10.176 1.429 14.272 4.288.725.512 1.237 1.067 1.536 1.664.341.597.512 1.365.512 2.304 0 1.323-.384 2.453-1.152 3.392-.726.896-1.622 1.344-2.688 1.344-.64 0-1.216-.085-1.728-.256-.512-.213-1.11-.533-1.792-.96-1.494-.896-2.902-1.536-4.224-1.92a14.618 14.618 0 00-4.096-.576c-3.798 0-6.635 1.152-8.512 3.456-1.835 2.261-2.752 5.717-2.752 10.368 0 4.693.917 8.192 2.752 10.496 1.877 2.261 4.714 3.392 8.512 3.392 1.28 0 2.517-.192 3.712-.576 1.194-.427 2.73-1.067 4.608-1.92.896-.469 1.557-.789 1.984-.96.426-.171.938-.256 1.536-.256 1.066 0 1.962.469 2.688 1.408.768.896 1.152 2.005 1.152 3.328 0 .896-.171 1.664-.512 2.304-.299.597-.811 1.152-1.536 1.664-4.096 2.859-8.854 4.288-14.272 4.288zm24.784-13.312c-3.542 0-5.312-1.493-5.312-4.48 0-2.944 1.77-4.416 5.312-4.416h12.032c1.792 0 3.114.384 3.968 1.152.896.768 1.344 1.856 1.344 3.264 0 1.408-.448 2.517-1.344 3.328-.854.768-2.176 1.152-3.968 1.152h-12.032zM529.286 315c-1.749 0-3.093-.469-4.032-1.408-.939-.939-1.408-2.283-1.408-4.032v-34.24c0-1.749.469-3.093 1.408-4.032.939-.939 2.283-1.408 4.032-1.408h22.144c1.835 0 3.221.384 4.16 1.152.939.768 1.408 1.877 1.408 3.328 0 3.072-1.856 4.608-5.568 4.608h-16.128v8.576h14.848c3.712 0 5.568 1.515 5.568 4.544 0 1.451-.469 2.56-1.408 3.328-.939.768-2.325 1.152-4.16 1.152h-14.848v9.344h16.128c3.712 0 5.568 1.536 5.568 4.608 0 1.451-.469 2.56-1.408 3.328-.939.768-2.325 1.152-4.16 1.152h-22.144zm38.572.384c-1.75 0-3.158-.533-4.224-1.6-1.067-1.067-1.6-2.475-1.6-4.224v-34.24c0-1.749.469-3.093 1.408-4.032.938-.939 2.282-1.408 4.032-1.408h21.504c1.92 0 3.328.384 4.223 1.152.897.725 1.345 1.899 1.345 3.52 0 1.579-.47 2.731-1.408 3.456-.896.725-2.283 1.088-4.16 1.088h-15.36v8.32h14.08c1.877 0 3.264.384 4.16 1.152.938.768 1.408 1.941 1.408 3.52s-.47 2.731-1.408 3.456c-.896.725-2.283 1.088-4.16 1.088h-14.08v12.928c0 1.792-.534 3.221-1.6 4.288-1.024 1.024-2.411 1.536-4.16 1.536zm37 0c-1.75 0-3.158-.533-4.224-1.6-1.067-1.067-1.6-2.475-1.6-4.224v-34.24c0-1.749.469-3.093 1.408-4.032.938-.939 2.282-1.408 4.032-1.408h21.504c1.92 0 3.328.384 4.223 1.152.897.725 1.345 1.899 1.345 3.52 0 1.579-.47 2.731-1.408 3.456-.896.725-2.283 1.088-4.16 1.088h-15.36v8.32h14.08c1.877 0 3.264.384 4.16 1.152.938.768 1.408 1.941 1.408 3.52s-.47 2.731-1.408 3.456c-.896.725-2.283 1.088-4.16 1.088h-14.08v12.928c0 1.792-.534 3.221-1.6 4.288-1.024 1.024-2.411 1.536-4.16 1.536zm36.616-.384c-1.75 0-3.094-.469-4.032-1.408-.939-.939-1.408-2.283-1.408-4.032v-34.24c0-1.749.469-3.093 1.408-4.032.938-.939 2.282-1.408 4.032-1.408h22.144c1.834 0 3.221.384 4.16 1.152.938.768 1.408 1.877 1.408 3.328 0 3.072-1.856 4.608-5.568 4.608H647.49v8.576h14.848c3.712 0 5.568 1.515 5.568 4.544 0 1.451-.47 2.56-1.408 3.328-.939.768-2.326 1.152-4.16 1.152H647.49v9.344h16.128c3.712 0 5.568 1.536 5.568 4.608 0 1.451-.47 2.56-1.408 3.328-.939.768-2.326 1.152-4.16 1.152h-22.144zm54.186.576c-4.523 0-8.491-.939-11.904-2.816-3.371-1.877-5.995-4.565-7.872-8.064-1.835-3.499-2.752-7.595-2.752-12.288 0-4.651.917-8.725 2.752-12.224 1.877-3.499 4.501-6.187 7.872-8.064 3.413-1.877 7.381-2.816 11.904-2.816 5.418 0 10.176 1.429 14.272 4.288.725.512 1.237 1.067 1.536 1.664.341.597.512 1.365.512 2.304 0 1.323-.384 2.453-1.152 3.392-.726.896-1.622 1.344-2.688 1.344-.64 0-1.216-.085-1.728-.256-.512-.213-1.11-.533-1.792-.96-1.494-.896-2.902-1.536-4.224-1.92a14.618 14.618 0 00-4.096-.576c-3.798 0-6.635 1.152-8.512 3.456-1.835 2.261-2.752 5.717-2.752 10.368 0 4.693.917 8.192 2.752 10.496 1.877 2.261 4.714 3.392 8.512 3.392 1.28 0 2.517-.192 3.712-.576 1.194-.427 2.73-1.067 4.608-1.92.896-.469 1.557-.789 1.984-.96.426-.171.938-.256 1.536-.256 1.066 0 1.962.469 2.688 1.408.768.896 1.152 2.005 1.152 3.328 0 .896-.171 1.664-.512 2.304-.299.597-.811 1.152-1.536 1.664-4.096 2.859-8.854 4.288-14.272 4.288zm37.502-.256c-1.792 0-3.243-.512-4.352-1.536-1.067-1.067-1.6-2.475-1.6-4.224v-30.144h-9.024c-1.878 0-3.286-.384-4.224-1.152-.896-.811-1.345-2.027-1.345-3.648s.449-2.816 1.345-3.584c.938-.768 2.346-1.152 4.224-1.152h29.952c1.877 0 3.264.384 4.16 1.152.938.768 1.408 1.963 1.408 3.584s-.47 2.837-1.408 3.648c-.896.768-2.283 1.152-4.16 1.152h-9.024v30.144c0 1.749-.555 3.157-1.664 4.224-1.067 1.024-2.496 1.536-4.288 1.536z"/><rect width="122" height="64" x="451" y="184" stroke="#000" stroke-width="20" rx="20"/><path stroke="#000" stroke-width="20" d="M512 184h100M412 248h100"/><circle cx="612" cy="184" r="10" fill="#000"/><circle cx="412" cy="248" r="10" fill="#000"/><path stroke="#000" stroke-width="15" d="M487 216.5h49"/><circle cx="535.5" cy="216.5" r="7.5" fill="#000"/><circle cx="486.5" cy="216.5" r="7.5" fill="#000"/><defs><linearGradient id="paint0_linear" x1="515" x2="515" y1="182" y2="337" gradientUnits="userSpaceOnUse"><stop stop-color="#1E90FF"/><stop offset="1" stop-color="#1E90FF" stop-opacity=".69"/></linearGradient></defs></svg>
